<svg width="20" height="20" viewBox="0 0 20 20" fill="none" xmlns="http://www.w3.org/2000/svg">
<g id="Group 1000006869">
<g id="Iconly/Light outline/Plus">
<g id="Plus">
<path id="Vector" d="M13.9272 0C17.0258 0 19.0815 2.41665 19.0815 5.89317V14.1068C19.0815 17.5833 17.0258 20 13.9272 20H5.96194C2.86335 20 0.807617 17.5833 0.807617 14.1068V5.89317C0.807617 2.4199 2.86878 0 5.96194 0H13.9272ZM13.9272 1.39535H5.96194C3.59368 1.39535 2.08254 3.16949 2.08254 5.89317V14.1068C2.08254 16.8341 3.58864 18.6047 5.96194 18.6047H13.9272C16.3005 18.6047 17.8066 16.8341 17.8066 14.1068V5.89317C17.8066 3.16587 16.3005 1.39535 13.9272 1.39535ZM9.94455 5.88587C10.2673 5.88587 10.534 6.14834 10.5762 6.48887L10.582 6.58354L10.5814 9.293L13.061 9.29347C13.4131 9.29347 13.6985 9.60583 13.6985 9.99115C13.6985 10.3444 13.4587 10.6363 13.1475 10.6825L13.061 10.6888L10.5814 10.688L10.582 13.3988C10.582 13.7841 10.2966 14.0964 9.94455 14.0964C9.62183 14.0964 9.35512 13.834 9.31291 13.4934L9.30709 13.3988L9.30679 10.688L6.82808 10.6888C6.47602 10.6888 6.19062 10.3765 6.19062 9.99115C6.19062 9.63794 6.43043 9.34604 6.74158 9.29984L6.82808 9.29347L9.30679 9.293L9.30709 6.58354C9.30709 6.19823 9.59249 5.88587 9.94455 5.88587Z" fill="#666666"/>
</g>
</g>
</g>
</svg>
