<svg width="24" height="25" viewBox="0 0 24 25" fill="none" xmlns="http://www.w3.org/2000/svg">
<g id="Comment">
<path id="Comment_2" d="M19.2 20.8906L18.9621 21.6019C19.2218 21.6888 19.5083 21.6272 19.7093 21.4412C19.9104 21.2552 19.994 20.9744 19.9276 20.7087L19.2 20.8906ZM18.4 17.6914L17.8004 17.2409L17.5857 17.5266L17.6724 17.8734L18.4 17.6914ZM16 19.8204L16.2379 19.1091L15.9172 19.0018L15.6245 19.1712L16 19.8204ZM12 20.1406C7.99594 20.1406 4.75 16.8947 4.75 12.8906H3.25C3.25 17.7231 7.16751 21.6406 12 21.6406V20.1406ZM4.75 12.8906C4.75 8.88656 7.99594 5.64062 12 5.64062V4.14062C7.16751 4.14062 3.25 8.05813 3.25 12.8906H4.75ZM12 5.64062C16.0041 5.64062 19.25 8.88656 19.25 12.8906H20.75C20.75 8.05813 16.8325 4.14062 12 4.14062V5.64062ZM19.25 12.8906C19.25 14.5239 18.7108 16.0291 17.8004 17.2409L18.9996 18.1419C20.0985 16.6793 20.75 14.86 20.75 12.8906H19.25ZM17.6724 17.8734L18.4724 21.0726L19.9276 20.7087L19.1276 17.5095L17.6724 17.8734ZM19.4379 20.1794L16.2379 19.1091L15.7621 20.5316L18.9621 21.6019L19.4379 20.1794ZM15.6245 19.1712C14.5588 19.7876 13.3218 20.1406 12 20.1406V21.6406C13.5925 21.6406 15.0878 21.2145 16.3755 20.4696L15.6245 19.1712Z" fill="black"/>
</g>
</svg>
